<svg width="1707" height="1144" viewBox="0 0 1707 1144" fill="none" xmlns="http://www.w3.org/2000/svg">
<g filter="url(#filter0_f_128_809)">
<path d="M764.772 -54.9108C907.142 -210.839 1067.73 -200.669 1402.04 -85.4175C1684.35 11.9043 1773.77 137.697 1812.2 375.587C1841.95 559.709 1783.67 677.476 1685.51 836.065C1408.58 1283.48 671.254 697.993 339.948 945.657C334.575 949.674 331.889 951.682 329.47 953.09C327.052 954.498 325.232 955.294 321.593 956.886C142.051 1035.44 -27.8979 820.37 -116.946 574.126C-207.614 323.403 -4.71351 -49.3924 235.972 -85.4176C476.658 -121.443 398.317 346.445 764.772 -54.9108Z" fill="url(#paint0_angular_128_809)" fill-opacity="0.3"/>
</g>
<defs>
<filter id="filter0_f_128_809" x="-382.638" y="-415.638" width="2446.27" height="1669.54" filterUnits="userSpaceOnUse" color-interpolation-filters="sRGB">
<feFlood flood-opacity="0" result="BackgroundImageFix"/>
<feBlend mode="normal" in="SourceGraphic" in2="BackgroundImageFix" result="shape"/>
<feGaussianBlur stdDeviation="121.819" result="effect1_foregroundBlur_128_809"/>
</filter>
<radialGradient id="paint0_angular_128_809" cx="0" cy="0" r="1" gradientUnits="userSpaceOnUse" gradientTransform="translate(893.797 192.963) rotate(30.7627) scale(238.168 351.923)">
<stop offset="0.0846014" stop-color="#6284FF"/>
<stop offset="0.142837" stop-color="#FF72B6"/>
<stop offset="0.26305" stop-color="#F9E5E8"/>
<stop offset="0.469886" stop-color="#97E1D4"/>
</radialGradient>
</defs>
</svg>
