<svg width="44" height="44" viewBox="0 0 44 44" fill="none" xmlns="http://www.w3.org/2000/svg">
<g filter="url(#filter0_ii_202_88)">
<circle cx="22" cy="22" r="22" fill="#DCE4F8"/>
</g>
<path d="M20.375 22.64V25.16C20.375 25.398 20.459 25.5976 20.627 25.7589C20.795 25.9201 21.0026 26.0005 21.25 26C21.4979 26 21.7058 25.9194 21.8739 25.7581C22.0418 25.5968 22.1256 25.3974 22.125 25.16V22.64H24.75C24.9979 22.64 25.2059 22.5594 25.3739 22.3981C25.5418 22.2368 25.6256 22.0374 25.625 21.8C25.625 21.562 25.5409 21.3624 25.373 21.2011C25.205 21.0398 24.9973 20.9594 24.75 20.96H22.125V18.44C22.125 18.202 22.041 18.0024 21.873 17.8411C21.705 17.6798 21.4973 17.5994 21.25 17.6C21.0021 17.6 20.7941 17.6806 20.6261 17.8419C20.4581 18.0032 20.3744 18.2026 20.375 18.44V20.96H17.75C17.5021 20.96 17.2941 21.0406 17.1261 21.2019C16.9581 21.3632 16.8744 21.5626 16.875 21.8C16.875 22.038 16.959 22.2376 17.127 22.3989C17.295 22.5602 17.5027 22.6406 17.75 22.64H20.375ZM21.25 30.2C20.0396 30.2 18.9021 29.9794 17.8375 29.5381C16.7729 29.0967 15.8469 28.4985 15.0594 27.743C14.2719 26.987 13.6486 26.0979 13.1895 25.0759C12.7304 24.054 12.5006 22.962 12.5 21.8C12.5 20.638 12.7298 19.546 13.1895 18.524C13.6492 17.502 14.2725 16.613 15.0594 15.857C15.8469 15.101 16.7729 14.5026 17.8375 14.0619C18.9021 13.6212 20.0396 13.4006 21.25 13.4C22.4604 13.4 23.5979 13.6206 24.6625 14.0619C25.7271 14.5032 26.6531 15.1016 27.4406 15.857C28.2281 16.613 28.8516 17.502 29.3113 18.524C29.771 19.546 30.0005 20.638 30 21.8C30 22.962 29.7701 24.054 29.3105 25.0759C28.8507 26.0979 28.2275 26.987 27.4406 27.743C26.6531 28.499 25.7271 29.0976 24.6625 29.5389C23.5979 29.9802 22.4604 30.2005 21.25 30.2ZM21.25 28.52C23.2042 28.52 24.8593 27.869 26.2156 26.567C27.5718 25.2649 28.25 23.676 28.25 21.8C28.25 19.924 27.5718 18.335 26.2156 17.033C24.8593 15.731 23.2042 15.08 21.25 15.08C19.2958 15.08 17.6406 15.731 16.2844 17.033C14.9281 18.335 14.25 19.924 14.25 21.8C14.25 23.676 14.9281 25.2649 16.2844 26.567C17.6406 27.869 19.2958 28.52 21.25 28.52Z" fill="#3B4F7D"/>
<defs>
<filter id="filter0_ii_202_88" x="-2" y="-2" width="48" height="48" filterUnits="userSpaceOnUse" color-interpolation-filters="sRGB">
<feFlood flood-opacity="0" result="BackgroundImageFix"/>
<feBlend mode="normal" in="SourceGraphic" in2="BackgroundImageFix" result="shape"/>
<feColorMatrix in="SourceAlpha" type="matrix" values="0 0 0 0 0 0 0 0 0 0 0 0 0 0 0 0 0 0 127 0" result="hardAlpha"/>
<feOffset dx="2" dy="2"/>
<feGaussianBlur stdDeviation="2"/>
<feComposite in2="hardAlpha" operator="arithmetic" k2="-1" k3="1"/>
<feColorMatrix type="matrix" values="0 0 0 0 0.729167 0 0 0 0 0.763889 0 0 0 0 0.875 0 0 0 1 0"/>
<feBlend mode="normal" in2="shape" result="effect1_innerShadow_202_88"/>
<feColorMatrix in="SourceAlpha" type="matrix" values="0 0 0 0 0 0 0 0 0 0 0 0 0 0 0 0 0 0 127 0" result="hardAlpha"/>
<feOffset dx="-2" dy="-2"/>
<feGaussianBlur stdDeviation="2"/>
<feComposite in2="hardAlpha" operator="arithmetic" k2="-1" k3="1"/>
<feColorMatrix type="matrix" values="0 0 0 0 1 0 0 0 0 1 0 0 0 0 1 0 0 0 1 0"/>
<feBlend mode="normal" in2="effect1_innerShadow_202_88" result="effect2_innerShadow_202_88"/>
</filter>
</defs>
</svg>
