<svg width="44" height="44" viewBox="0 0 44 44" fill="none" xmlns="http://www.w3.org/2000/svg">
<g filter="url(#filter0_ii_128_815)">
<circle cx="22" cy="22" r="22" fill="#DCE4F8"/>
</g>
<path d="M13.833 21.2409C13.833 21.5679 13.9756 21.9117 14.2019 22.1381L19.6689 27.5883C19.9205 27.8399 20.2223 27.9656 20.5158 27.9656C21.2285 27.9656 21.7149 27.4709 21.7149 26.8169C21.7149 26.4564 21.5555 26.1629 21.3292 25.9449L19.4509 24.0666L17.5895 22.3561L19.4258 22.4567H28.9008C29.6554 22.4567 30.1585 21.962 30.1585 21.2409C30.1585 20.5114 29.6554 20.0251 28.9008 20.0251H19.4258L17.5979 20.1257L19.4509 18.4152L21.3292 16.5286C21.5555 16.3106 21.7149 16.0255 21.7149 15.6565C21.7149 15.0025 21.2285 14.5078 20.5158 14.5078C20.2223 14.5078 19.9205 14.6336 19.6605 14.8935L14.2019 20.3437C13.9756 20.5701 13.833 20.9139 13.833 21.2409Z" fill="#3B4F7D"/>
<defs>
<filter id="filter0_ii_128_815" x="-2" y="-2" width="48" height="48" filterUnits="userSpaceOnUse" color-interpolation-filters="sRGB">
<feFlood flood-opacity="0" result="BackgroundImageFix"/>
<feBlend mode="normal" in="SourceGraphic" in2="BackgroundImageFix" result="shape"/>
<feColorMatrix in="SourceAlpha" type="matrix" values="0 0 0 0 0 0 0 0 0 0 0 0 0 0 0 0 0 0 127 0" result="hardAlpha"/>
<feOffset dx="2" dy="2"/>
<feGaussianBlur stdDeviation="2"/>
<feComposite in2="hardAlpha" operator="arithmetic" k2="-1" k3="1"/>
<feColorMatrix type="matrix" values="0 0 0 0 0.729167 0 0 0 0 0.763889 0 0 0 0 0.875 0 0 0 1 0"/>
<feBlend mode="normal" in2="shape" result="effect1_innerShadow_128_815"/>
<feColorMatrix in="SourceAlpha" type="matrix" values="0 0 0 0 0 0 0 0 0 0 0 0 0 0 0 0 0 0 127 0" result="hardAlpha"/>
<feOffset dx="-2" dy="-2"/>
<feGaussianBlur stdDeviation="2"/>
<feComposite in2="hardAlpha" operator="arithmetic" k2="-1" k3="1"/>
<feColorMatrix type="matrix" values="0 0 0 0 1 0 0 0 0 1 0 0 0 0 1 0 0 0 1 0"/>
<feBlend mode="normal" in2="effect1_innerShadow_128_815" result="effect2_innerShadow_128_815"/>
</filter>
</defs>
</svg>
