<svg width="11" height="10" viewBox="0 0 11 10" fill="none" xmlns="http://www.w3.org/2000/svg">
<path d="M9.24917 2.81032L7.15432 0.80124L7.6811 0.287011C7.87711 0.0956705 8.11199 0 8.38575 0C8.65951 0 8.89015 0.0956705 9.07766 0.287011L9.76369 0.968663C9.95153 1.15203 10.0455 1.37526 10.0455 1.63836C10.0455 1.90145 9.95153 2.12468 9.76369 2.30805L9.24917 2.81032ZM0.980045 9.81818C0.710533 9.81818 0.479732 9.72458 0.287644 9.53739C0.0955551 9.35019 -0.000325849 9.12489 8.31957e-07 8.86148V2.16454C8.31957e-07 1.90145 0.0960452 1.67615 0.288134 1.48863C0.480223 1.30112 0.71086 1.20752 0.980045 1.20784H5.35349L2.38886 4.10187C2.25002 4.2374 2.14385 4.39287 2.07034 4.56826C1.99684 4.74366 1.96009 4.92703 1.96009 5.11837V6.94807C1.96009 7.21116 2.05613 7.43646 2.24822 7.62398C2.44031 7.81149 2.67095 7.90509 2.94013 7.90477H4.81447C5.01048 7.90477 5.19832 7.8689 5.37799 7.79714C5.55767 7.72539 5.71693 7.62175 5.85577 7.48621L8.8204 4.58022V8.86148C8.8204 9.12457 8.72436 9.34987 8.53227 9.53739C8.34018 9.7249 8.10954 9.8185 7.84036 9.81818H0.980045ZM3.43016 6.94807C3.29132 6.94807 3.17485 6.9023 3.08077 6.81078C2.98669 6.71925 2.93981 6.60557 2.94013 6.46971V5.30971C2.94013 5.18215 2.96463 5.06049 3.01364 4.94473C3.06264 4.82897 3.13206 4.7274 3.2219 4.64002L6.45604 1.48289L8.55089 3.49197L5.30449 6.66106C5.21465 6.74875 5.11061 6.81859 4.99235 6.87057C4.87409 6.92255 4.74946 6.94839 4.61846 6.94807H3.43016Z" fill="#3B4F7D"/>
</svg>
